HIERARCHY
ROOT hip
{
  OFFSET 0.00112043 5.09927 -9.65472
  CHANNELS 6 Xposition Yposition Zposition Zrotation Xrotation Yrotation
  JOINT abdomen
  {
    OFFSET 0 -1.186 -1.5018
    CHANNELS 3 Zrotation Xrotation Yrotation
    JOINT abdomen2
    {
      OFFSET 0 9.964 0.2134
      CHANNELS 3 Zrotation Xrotation Yrotation
      JOINT chest
      {
        OFFSET 0 13.134 -3.2573
        CHANNELS 3 Zrotation Xrotation Yrotation
        JOINT neck
        {
          OFFSET 0 20.686 -1.6905
          CHANNELS 3 Zrotation Xrotation Yrotation
          JOINT head
          {
            OFFSET 0 7.238 -0.1237
            CHANNELS 3 Zrotation Xrotation Yrotation
            End Site
            {
              OFFSET 0 0 0
            }
          }
        }
        JOINT lCollar
        {
          OFFSET 1.7069 20.075 5.0056
          CHANNELS 3 Zrotation Xrotation Yrotation
          JOINT lShldr
          {
            OFFSET 13.6458 -0.047 -4.849
            CHANNELS 3 Zrotation Xrotation Yrotation
            JOINT lForeArm
            {
              OFFSET 28.3255 -0.9759 2.2888
              CHANNELS 3 Zrotation Xrotation Yrotation
              JOINT lHand
              {
                OFFSET 22.1583 -0.53 10.8316
                CHANNELS 3 Zrotation Xrotation Yrotation
                JOINT lThumb1
                {
                  OFFSET 0.786 0.112 2.5817
                  CHANNELS 3 Zrotation Xrotation Yrotation
                  JOINT lThumb2
                  {
                    OFFSET 0.3601 -0.878 4.2331
                    CHANNELS 3 Zrotation Xrotation Yrotation
                    JOINT lThumb2_End
                    {
                      OFFSET 1.8127 -1.216 2.2227
                      CHANNELS 3 Zrotation Xrotation Yrotation
                      End Site
                      {
                        OFFSET 0.0181 -0.0122 0.0222
                      }
                    }
                  }
                }
                JOINT lCarpal1
                {
                  OFFSET 0.9571 1.114 1.7695
                  CHANNELS 3 Zrotation Xrotation Yrotation
                  JOINT lIndex1
                  {
                    OFFSET 4.1246 0.487 4.1451
                    CHANNELS 3 Zrotation Xrotation Yrotation
                    JOINT lIndex2
                    {
                      OFFSET 3.4052 -1.454 2.7682
                      CHANNELS 3 Zrotation Xrotation Yrotation
                      JOINT lIndex2_End
                      {
                        OFFSET 1.4531 -1.795 1.2713
                        CHANNELS 3 Zrotation Xrotation Yrotation
                        End Site
                        {
                          OFFSET 0.0145 -0.0179 0.0127
                        }
                      }
                    }
                  }
                  JOINT lMid1
                  {
                    OFFSET 5.6954 0.21 2.1184
                    CHANNELS 3 Zrotation Xrotation Yrotation
                    JOINT lMid2
                    {
                      OFFSET 3.9766 -1.54 2.3863
                      CHANNELS 3 Zrotation Xrotation Yrotation
                      JOINT lMid2_End
                      {
                        OFFSET 1.4042 -1.926 1.125
                        CHANNELS 3 Zrotation Xrotation Yrotation
                        End Site
                        {
                          OFFSET 0.014 -0.0193 0.0113
                        }
                      }
                    }
                  }
                }
                JOINT lCarpal2
                {
                  OFFSET 2.0956 0.66 -0.3894
                  CHANNELS 3 Zrotation Xrotation Yrotation
                  JOINT lRing1
                  {
                    OFFSET 5.0395 -0.09 2.4971
                    CHANNELS 3 Zrotation Xrotation Yrotation
                    JOINT lRing2
                    {
                      OFFSET 3.7921 -1.552 1.4806
                      CHANNELS 3 Zrotation Xrotation Yrotation
                      JOINT lRing2_End
                      {
                        OFFSET 1.4655 -1.808 0.9609
                        CHANNELS 3 Zrotation Xrotation Yrotation
                        End Site
                        {
                          OFFSET 0.0147 -0.0181 0.0096
                        }
                      }
                    }
                  }
                  JOINT lPinky1
                  {
                    OFFSET 4.9141 -1.269 0.3591
                    CHANNELS 3 Zrotation Xrotation Yrotation
                    JOINT lPinky2
                    {
                      OFFSET 3.1477 -1.685 0.8462
                      CHANNELS 3 Zrotation Xrotation Yrotation
                      JOINT lPinky2_End
                      {
                        OFFSET 0.8055 -1.585 0.7955
                        CHANNELS 3 Zrotation Xrotation Yrotation
                        End Site
                        {
                          OFFSET 0.0081 -0.0158 0.008
                        }
                      }
                    }
                  }
                }
              }
            }
          }
        }
        JOINT rCollar
        {
          OFFSET -1.7069 20.075 5.0056
          CHANNELS 3 Zrotation Xrotation Yrotation
          JOINT rShldr
          {
            OFFSET -13.6458 -0.047 -4.849
            CHANNELS 3 Zrotation Xrotation Yrotation
            JOINT rForeArm
            {
              OFFSET -28.3255 -0.9759 2.2888
              CHANNELS 3 Zrotation Xrotation Yrotation
              JOINT rHand
              {
                OFFSET -22.1583 -0.53 10.8316
                CHANNELS 3 Zrotation Xrotation Yrotation
                JOINT rThumb1
                {
                  OFFSET -0.786 0.112 2.5817
                  CHANNELS 3 Zrotation Xrotation Yrotation
                  JOINT rThumb2
                  {
                    OFFSET -0.3601 -0.878 4.2331
                    CHANNELS 3 Zrotation Xrotation Yrotation
                    JOINT rThumb2_End
                    {
                      OFFSET -1.8127 -1.216 2.2227
                      CHANNELS 3 Zrotation Xrotation Yrotation
                      End Site
                      {
                        OFFSET -0.0181 -0.0122 0.0222
                      }
                    }
                  }
                }
                JOINT rCarpal1
                {
                  OFFSET -0.9571 1.114 1.7695
                  CHANNELS 3 Zrotation Xrotation Yrotation
                  JOINT rIndex1
                  {
                    OFFSET -4.1246 0.487 4.1451
                    CHANNELS 3 Zrotation Xrotation Yrotation
                    JOINT rIndex2
                    {
                      OFFSET -3.4052 -1.454 2.7682
                      CHANNELS 3 Zrotation Xrotation Yrotation
                      JOINT rIndex2_End
                      {
                        OFFSET -1.4531 -1.795 1.2713
                        CHANNELS 3 Zrotation Xrotation Yrotation
                        End Site
                        {
                          OFFSET -0.0145 -0.018 0.0127
                        }
                      }
                    }
                  }
                  JOINT rMid1
                  {
                    OFFSET -5.6954 0.21 2.1184
                    CHANNELS 3 Zrotation Xrotation Yrotation
                    JOINT rMid2
                    {
                      OFFSET -3.9766 -1.54 2.3863
                      CHANNELS 3 Zrotation Xrotation Yrotation
                      JOINT rMid2_End
                      {
                        OFFSET -1.4042 -1.926 1.125
                        CHANNELS 3 Zrotation Xrotation Yrotation
                        End Site
                        {
                          OFFSET -0.014 -0.0193 0.0113
                        }
                      }
                    }
                  }
                }
                JOINT rCarpal2
                {
                  OFFSET -2.0956 0.66 -0.3894
                  CHANNELS 3 Zrotation Xrotation Yrotation
                  JOINT rRing1
                  {
                    OFFSET -5.0395 -0.09 2.4971
                    CHANNELS 3 Zrotation Xrotation Yrotation
                    JOINT rRing2
                    {
                      OFFSET -3.7921 -1.552 1.4806
                      CHANNELS 3 Zrotation Xrotation Yrotation
                      JOINT rRing2_End
                      {
                        OFFSET -1.4655 -1.808 0.9609
                        CHANNELS 3 Zrotation Xrotation Yrotation
                        End Site
                        {
                          OFFSET -0.0147 -0.0181 0.0096
                        }
                      }
                    }
                  }
                  JOINT rPinky1
                  {
                    OFFSET -4.9141 -1.269 0.3592
                    CHANNELS 3 Zrotation Xrotation Yrotation
                    JOINT rPinky2
                    {
                      OFFSET -3.1477 -1.685 0.8462
                      CHANNELS 3 Zrotation Xrotation Yrotation
                      JOINT rPinky2_End
                      {
                        OFFSET -0.8055 -1.585 0.7955
                        CHANNELS 3 Zrotation Xrotation Yrotation
                        End Site
                        {
                          OFFSET -0.0081 -0.0158 0.008
                        }
                      }
                    }
                  }
                }
              }
            }
          }
        }
      }
    }
  }
  JOINT lThigh
  {
    OFFSET 8.367 -8.2066 0.5982
    CHANNELS 3 Zrotation Xrotation Yrotation
    JOINT lShin
    {
      OFFSET 2.1923 -43.463 -0.4932
      CHANNELS 3 Zrotation Xrotation Yrotation
      JOINT lFoot
      {
        OFFSET 0.7333 -45.8593 -2.6451
        CHANNELS 3 Zrotation Xrotation Yrotation
        End Site
        {
          OFFSET 2.6618 -4.2699 12.3931
        }
      }
    }
  }
  JOINT rThigh
  {
    OFFSET -8.367 -8.2066 0.5982
    CHANNELS 3 Zrotation Xrotation Yrotation
    JOINT rShin
    {
      OFFSET -2.1923 -43.463 -0.4931
      CHANNELS 3 Zrotation Xrotation Yrotation
      JOINT rFoot
      {
        OFFSET -0.7333 -45.8593 -2.6451
        CHANNELS 3 Zrotation Xrotation Yrotation
        End Site
        {
          OFFSET -2.6618 -4.2699 12.3931
        }
      }
    }
  }
}
MOTION
Frames:	6
Frame Time:	0.0333333
-3.35957 26.8477 39.2839 -1.40334e-014 2.3078e-019 -90.0019 0.680046 12.0537 -0.673759 1.56269 24.0973 -1.5511 1.56268 24.0973 -1.55108 25.2561 3.90015 -22.5413 -10.3578 -41.4218 -22.4291 20.3646 -8.87688 32.6966 -29.6446 -3.09451 -35.3362 -24.9037 -2.95666 -108.818 -35.9718 -76.2649 -37.802 6.36111e-015 9.54166e-015 -7.95139e-015 2.761e-006 -1.02732e-006 1.72111e-006 6.36111e-015 -1.59028e-015 -0 6.36111e-015 6.36111e-015 -7.95139e-015 3.18055e-015 7.95139e-015 -4.77083e-015 2.761e-006 -1.02732e-006 1.72111e-006 -0 -6.36111e-015 -0 3.18055e-015 7.95139e-015 -4.77083e-015 2.761e-006 -1.02732e-006 1.72111e-006 -0 -6.36111e-015 -0 6.36111e-015 6.36111e-015 -7.95139e-015 3.18055e-015 7.95139e-015 -4.77083e-015 2.761e-006 -1.02732e-006 1.72111e-006 -0 -6.36111e-015 -0 3.18055e-015 7.95139e-015 -4.77083e-015 2.761e-006 -1.02732e-006 1.72111e-006 -0 -6.36111e-015 -0 -17.2754 -36.2009 -54.6125 85.799 24.6751 13.7685 51.9392 36.0069 79.3881 -2.63646 -34.6974 -26.8021 3.86741e-007 1.48757e-007 1.02391e-007 7.73482e-007 2.97515e-007 2.04782e-007 3.86741e-007 1.48757e-007 1.02391e-007 -0 -6.36111e-015 -0 3.86741e-007 1.48757e-007 1.02391e-007 7.73482e-007 2.97515e-007 2.04782e-007 3.86741e-007 1.48757e-007 1.02391e-007 3.86741e-007 1.48757e-007 1.02391e-007 7.73482e-007 2.97515e-007 2.04782e-007 3.86741e-007 1.48757e-007 1.02391e-007 -0 -6.36111e-015 -0 3.86741e-007 1.48757e-007 1.02391e-007 7.73482e-007 2.97515e-007 2.04782e-007 3.86741e-007 1.48757e-007 1.02391e-007 3.86741e-007 1.48757e-007 1.02391e-007 7.73482e-007 2.97515e-007 2.04782e-007 3.86741e-007 1.48757e-007 1.02391e-007 -7.89698 -64.3924 -0.704989 168.89 35.8559 -156.412 5.72523 62.8993 -3.86013 6.71079 -65.5996 -6.57455 -169.053 35.214 156.189 -1.85402 63.2257 -5.29724 
-3.35957 26.8477 39.2839 -1.40334e-014 2.3078e-019 -90.0019 0.664137 12.054 -0.663474 1.52739 24.0982 -1.52615 1.52739 24.0982 -1.52616 24.6958 4.08325 -21.6998 -10.1143 -41.3629 -21.9369 20.5184 -8.9425 32.3635 -29.6448 -3.09409 -35.3356 -24.9024 -2.95526 -108.821 -34.6258 -76.3146 -36.5837 -7.0467e-007 6.54979e-006 -1.42256e-006 -6.75756e-007 -6.03575e-006 5.62132e-007 -7.0467e-007 6.54979e-006 -1.42256e-006 6.36111e-015 -1.59028e-015 -1.59028e-015 -7.0467e-007 6.54979e-006 -1.42256e-006 -6.75756e-007 -6.03575e-006 5.62132e-007 -7.0467e-007 6.54979e-006 -1.42256e-006 -7.0467e-007 6.54979e-006 -1.42256e-006 -6.75756e-007 -6.03575e-006 5.62132e-007 -7.0467e-007 6.54979e-006 -1.42256e-006 6.36111e-015 -1.59028e-015 -1.59028e-015 -7.0467e-007 6.54979e-006 -1.42256e-006 -6.75756e-007 -6.03575e-006 5.62132e-007 -7.0467e-007 6.54979e-006 -1.42256e-006 -7.0467e-007 6.54979e-006 -1.42256e-006 -6.75756e-007 -6.03575e-006 5.62132e-007 -7.0467e-007 6.54979e-006 -1.42256e-006 -17.3812 -36.1676 -54.843 85.7279 24.5464 13.754 51.9989 35.8033 79.2742 -2.21976 -34.8871 -26.7293 -4.79295e-007 -9.15652e-008 2.41076e-006 9.36347e-007 -1.15829e-006 3.37175e-006 -3.39885e-007 3.3497e-008 6.82829e-007 1.76556e-031 -3.18055e-015 3.18055e-015 -4.79295e-007 -9.15652e-008 2.41076e-006 9.36347e-007 -1.15829e-006 3.37175e-006 -3.39885e-007 3.3497e-008 6.82829e-007 -4.79295e-007 -9.15652e-008 2.41076e-006 9.36347e-007 -1.15829e-006 3.37175e-006 -3.39885e-007 3.3497e-008 6.82829e-007 1.76556e-031 -3.18055e-015 3.18055e-015 -4.79295e-007 -9.15652e-008 2.41076e-006 9.36347e-007 -1.15829e-006 3.37175e-006 -3.39885e-007 3.3497e-008 6.82829e-007 -4.79295e-007 -9.15652e-008 2.41076e-006 9.36347e-007 -1.15829e-006 3.37175e-006 -3.39885e-007 3.3497e-008 6.82829e-007 -7.89698 -64.3924 -0.704989 168.89 35.8559 -156.412 5.72523 62.8993 -3.86013 6.71079 -65.5996 -6.57455 -169.053 35.214 156.189 -1.85402 63.2257 -5.29724 
-3.35957 26.8477 39.2839 -1.40334e-014 2.3078e-019 -90.0019 0.651118 12.0543 -0.655049 1.49851 24.099 -1.50575 1.49851 24.099 -1.50574 24.237 4.23935 -21.0092 -9.91547 -41.3137 -21.5345 20.6442 -8.99714 32.0909 -29.6449 -3.09369 -35.335 -24.9011 -2.95386 -108.824 -33.5174 -76.35 -35.5801 -1.38036e-006 5.14362e-007 -8.60328e-007 1.38036e-006 -5.14362e-007 8.60328e-007 -3.18055e-015 -9.54166e-015 4.77083e-015 -3.18055e-015 1.59028e-015 1.59028e-015 -1.38036e-006 5.14362e-007 -8.60328e-007 1.38036e-006 -5.14362e-007 8.60328e-007 3.18055e-015 3.18055e-015 -1.27222e-014 -1.38036e-006 5.14362e-007 -8.60328e-007 1.38036e-006 -5.14362e-007 8.60328e-007 3.18055e-015 3.18055e-015 -1.27222e-014 -3.18055e-015 1.59028e-015 1.59028e-015 -1.38036e-006 5.14362e-007 -8.60328e-007 1.38036e-006 -5.14362e-007 8.60328e-007 3.18055e-015 3.18055e-015 -1.27222e-014 -1.38036e-006 5.14362e-007 -8.60328e-007 1.38036e-006 -5.14362e-007 8.60328e-007 3.18055e-015 3.18055e-015 -1.27222e-014 -17.4676 -36.1401 -55.0315 85.6698 24.441 13.742 52.0473 35.6367 79.1814 -1.8774 -35.042 -26.6677 6.81825e-007 -6.60966e-008 -1.36201e-006 4.57536e-008 1.81984e-007 7.83407e-007 1.76556e-030 6.36111e-015 -1.59028e-014 -0 -3.18055e-015 -0 6.81825e-007 -6.60966e-008 -1.36201e-006 4.57536e-008 1.81984e-007 7.83407e-007 0 0 -0 6.81825e-007 -6.60966e-008 -1.36201e-006 4.57536e-008 1.81984e-007 7.83407e-007 0 0 -0 -0 -3.18055e-015 -0 6.81825e-007 -6.60966e-008 -1.36201e-006 4.57536e-008 1.81984e-007 7.83407e-007 0 0 -0 6.81825e-007 -6.60966e-008 -1.36201e-006 4.57536e-008 1.81984e-007 7.83407e-007 0 0 -0 -7.89698 -64.3924 -0.704989 168.89 35.8559 -156.412 5.72523 62.8993 -3.86013 6.71079 -65.5996 -6.57455 -169.053 35.214 156.189 -1.85402 63.2257 -5.29724 
-3.35957 26.8477 39.2839 -1.40334e-014 2.3078e-019 -90.0019 0.638106 12.0545 -0.646634 1.46963 24.0998 -1.48534 1.46964 24.0998 -1.48536 23.7754 4.39041 -20.3154 -9.71718 -41.2635 -21.1325 20.7698 -9.05238 31.8183 -29.6451 -3.09326 -35.3345 -24.8998 -2.95244 -108.827 -32.4036 -76.3809 -34.5711 1.3803e-006 -5.14679e-007 8.60226e-007 -9.54166e-015 0 4.77083e-015 2.76061e-006 -1.02936e-006 1.72045e-006 1.76556e-031 -3.18055e-015 3.18055e-015 1.3803e-006 -5.14679e-007 8.60226e-007 -9.54166e-015 3.18055e-015 -1.59028e-015 2.76061e-006 -1.02936e-006 1.72045e-006 1.3803e-006 -5.14679e-007 8.60226e-007 -9.54166e-015 3.18055e-015 -1.59028e-015 2.76061e-006 -1.02936e-006 1.72045e-006 1.76556e-031 -3.18055e-015 3.18055e-015 1.3803e-006 -5.14679e-007 8.60226e-007 -9.54166e-015 3.18055e-015 -1.59028e-015 2.76061e-006 -1.02936e-006 1.72045e-006 1.3803e-006 -5.14679e-007 8.60226e-007 -9.54166e-015 3.18055e-015 -1.59028e-015 2.76061e-006 -1.02936e-006 1.72045e-006 -17.5539 -36.1124 -55.2199 85.6116 24.3357 13.7298 52.0952 35.47 79.0889 -1.53401 -35.1967 -26.6048 3.86635e-007 1.4901e-007 1.02406e-007 7.7327e-007 2.98019e-007 2.04811e-007 3.86635e-007 1.4901e-007 1.02406e-007 -1.05934e-030 -6.36111e-015 -9.54166e-015 3.86635e-007 1.4901e-007 1.02406e-007 7.7327e-007 2.98019e-007 2.04811e-007 3.86635e-007 1.4901e-007 1.02406e-007 3.86635e-007 1.4901e-007 1.02406e-007 7.7327e-007 2.98019e-007 2.04811e-007 3.86635e-007 1.4901e-007 1.02406e-007 -1.05934e-030 -6.36111e-015 -9.54166e-015 3.86635e-007 1.4901e-007 1.02406e-007 7.7327e-007 2.98019e-007 2.04811e-007 3.86635e-007 1.4901e-007 1.02406e-007 3.86635e-007 1.4901e-007 1.02406e-007 7.7327e-007 2.98019e-007 2.04811e-007 3.86635e-007 1.4901e-007 1.02406e-007 -7.89698 -64.3924 -0.704989 168.89 35.8559 -156.412 5.72523 62.8993 -3.86013 6.71079 -65.5996 -6.57455 -169.053 35.214 156.189 -1.85402 63.2257 -5.29724 
-3.35957 26.8477 39.2839 -1.40334e-014 2.3078e-019 -90.0019 0.625087 12.0547 -0.638218 1.44075 24.1006 -1.46493 1.44074 24.1006 -1.46494 23.3102 4.53559 -19.6185 -9.51943 -41.2121 -20.7309 20.8952 -9.10821 31.5457 -29.6453 -3.09285 -35.334 -24.8985 -2.95105 -108.83 -31.2851 -76.4071 -33.5574 5.12016e-006 1.05048e-006 -4.00253e-008 0 0 -3.18055e-015 2.76049e-006 -1.02999e-006 1.72025e-006 9.54166e-015 0 1.59028e-015 5.12016e-006 1.05048e-006 -4.00253e-008 -6.36111e-015 -9.54166e-015 -1.59028e-015 2.76049e-006 -1.02999e-006 1.72025e-006 5.12016e-006 1.05048e-006 -4.00253e-008 -6.36111e-015 -9.54166e-015 -1.59028e-015 2.76049e-006 -1.02999e-006 1.72025e-006 9.54166e-015 0 1.59028e-015 5.12016e-006 1.05048e-006 -4.00253e-008 -6.36111e-015 -9.54166e-015 -1.59028e-015 2.76049e-006 -1.02999e-006 1.72025e-006 5.12016e-006 1.05048e-006 -4.00253e-008 -6.36111e-015 -9.54166e-015 -1.59028e-015 2.76049e-006 -1.02999e-006 1.72025e-006 -17.64 -36.0845 -55.4082 85.5535 24.2303 13.7175 52.1427 35.3032 78.9967 -1.18962 -35.3511 -26.5406 2.99086e-007 -2.13409e-007 -1.45755e-006 -3.86605e-007 -1.49081e-007 -1.02408e-007 -6.85691e-007 6.43278e-008 1.35514e-006 -6.36111e-015 -3.18055e-015 3.18055e-015 2.99086e-007 -2.13409e-007 -1.45755e-006 -3.86605e-007 -1.49081e-007 -1.02408e-007 -6.85691e-007 6.43278e-008 1.35514e-006 2.99086e-007 -2.13409e-007 -1.45755e-006 -3.86605e-007 -1.49081e-007 -1.02408e-007 -6.85691e-007 6.43278e-008 1.35514e-006 -6.36111e-015 -3.18055e-015 3.18055e-015 2.99086e-007 -2.13409e-007 -1.45755e-006 -3.86605e-007 -1.49081e-007 -1.02408e-007 -6.85691e-007 6.43278e-008 1.35514e-006 2.99086e-007 -2.13409e-007 -1.45755e-006 -3.86605e-007 -1.49081e-007 -1.02408e-007 -6.85691e-007 6.43278e-008 1.35514e-006 -7.89698 -64.3924 -0.704989 168.89 35.8559 -156.412 5.72523 62.8993 -3.86013 6.71079 -65.5996 -6.57455 -169.053 35.214 156.189 -1.85402 63.2257 -5.29724 
-3.35957 26.8477 39.2839 -1.40334e-014 2.3078e-019 -90.0019 0.612069 12.0549 -0.629778 1.41187 24.1013 -1.44453 1.41186 24.1013 -1.44452 22.8425 4.6762 -18.9188 -9.32226 -41.1598 -20.3297 21.0203 -9.16468 31.273 -29.6454 -3.09243 -35.3334 -24.8972 -2.94965 -108.833 -30.1624 -76.4287 -32.5395 -3.97252e-031 -4.77083e-015 -4.77083e-015 -6.36111e-015 0 -0 3.18055e-015 -1.59028e-015 -3.18055e-015 3.18055e-015 -4.77083e-015 -3.18055e-015 -3.18055e-015 1.59028e-015 1.59028e-015 -3.18055e-015 4.77083e-015 -4.77083e-015 3.18055e-015 1.59028e-015 1.59028e-015 -3.18055e-015 1.59028e-015 1.59028e-015 -3.18055e-015 4.77083e-015 -4.77083e-015 3.18055e-015 1.59028e-015 1.59028e-015 3.18055e-015 -4.77083e-015 -3.18055e-015 -3.18055e-015 1.59028e-015 1.59028e-015 -3.18055e-015 4.77083e-015 -4.77083e-015 3.18055e-015 1.59028e-015 1.59028e-015 -3.18055e-015 1.59028e-015 1.59028e-015 -3.18055e-015 4.77083e-015 -4.77083e-015 3.18055e-015 1.59028e-015 1.59028e-015 -17.726 -36.0564 -55.5965 85.4954 24.125 13.7052 52.1898 35.1363 78.9049 -0.844191 -35.5053 -26.4752 -4.32707e-007 8.8619e-008 3.19502e-006 9.51075e-007 1.84522e-007 -4.83332e-006 -1.93425e-006 1.21263e-006 4.76118e-006 5.29669e-031 -3.18055e-015 9.54166e-015 -4.32707e-007 8.8619e-008 3.19502e-006 9.51075e-007 1.84522e-007 -4.83332e-006 -1.93425e-006 1.21263e-006 4.76118e-006 -4.32707e-007 8.8619e-008 3.19502e-006 9.51075e-007 1.84522e-007 -4.83332e-006 -1.93425e-006 1.21263e-006 4.76118e-006 5.29669e-031 -3.18055e-015 9.54166e-015 -4.32707e-007 8.8619e-008 3.19502e-006 9.51075e-007 1.84522e-007 -4.83332e-006 -1.93425e-006 1.21263e-006 4.76118e-006 -4.32707e-007 8.8619e-008 3.19502e-006 9.51075e-007 1.84522e-007 -4.83332e-006 -1.93425e-006 1.21263e-006 4.76118e-006 -7.89698 -64.3924 -0.704989 168.89 35.8559 -156.412 5.72523 62.8993 -3.86013 6.71079 -65.5996 -6.57455 -169.053 35.214 156.189 -1.85402 63.2257 -5.29724 
